<svg width="180" height="32" viewBox="0 0 180 32" fill="none" xmlns="http://www.w3.org/2000/svg">
<path d="M13.9805 3.5263L9.62365 19.3612C9.42311 20.0901 8.32007 19.9489 8.32007 19.1943V2.80171C8.32007 1.25437 9.60913 0 11.1993 0C13.0922 0 14.4701 1.74701 13.9805 3.5263Z" fill="#00C2FF"/>
<path d="M21.8549 11.6116L11.6407 21.1381C11.1072 21.6357 10.2872 20.9981 10.6496 20.3676L17.589 8.29494C18.4185 6.85171 20.3477 6.4717 21.6671 7.49161C22.9915 8.5153 23.0805 10.4685 21.8549 11.6116Z" fill="#0094FF"/>
<path d="M20.5611 23.68L12.8098 23.68C12.125 23.68 11.9071 22.7272 12.5196 22.4111L19.4526 18.8334C21.1007 17.9829 23.0399 19.2198 23.0399 21.1216C23.0399 22.5346 21.9301 23.68 20.5611 23.68Z" fill="#6431F4"/>
<path fill-rule="evenodd" clip-rule="evenodd" d="M2.23998 9.79135e-08C3.4771 4.38374e-08 4.47998 1.00288 4.47998 2.24L4.47998 29.76C4.47998 30.9971 3.4771 32 2.23998 32C1.00286 32 -1.81954e-05 30.9971 -1.82495e-05 29.76L-1.94524e-05 2.24C-1.95065e-05 1.00288 1.00286 1.5199e-07 2.23998 9.79135e-08Z" fill="#2A2A2A"/>
<path fill-rule="evenodd" clip-rule="evenodd" d="M23.04 29.76C23.04 30.9971 22.0372 32 20.8 32H2.24004C1.00292 32 3.8147e-05 30.9971 3.8147e-05 29.76C3.8147e-05 28.5229 1.00292 27.52 2.24004 27.52L20.8 27.52C22.0372 27.52 23.04 28.5229 23.04 29.76Z" fill="#2A2A2A"/>
<path d="M102.148 6.59201C102.993 6.59201 103.753 6.79169 104.428 7.19105C105.104 7.57505 105.626 8.12033 105.994 8.82689C106.378 9.51809 106.57 10.3014 106.57 11.177C106.57 12.0525 106.378 12.8512 105.994 13.5731C105.626 14.295 105.104 14.8634 104.428 15.2781C103.753 15.6928 102.993 15.9002 102.148 15.9002H97.3817V22.0288C97.3817 22.2285 97.3126 22.3974 97.1744 22.5357C97.0516 22.6586 96.8904 22.72 96.6908 22.72C96.4913 22.72 96.3224 22.6586 96.1842 22.5357C96.0614 22.3974 96 22.2285 96 22.0288V7.28321C96 7.08353 96.0614 6.92225 96.1842 6.79937C96.3224 6.66113 96.4913 6.59201 96.6908 6.59201H102.148ZM102.148 14.5638C103.039 14.5638 103.76 14.2413 104.313 13.5962C104.866 12.951 105.142 12.1446 105.142 11.177C105.142 10.2246 104.866 9.44897 104.313 8.84993C103.76 8.25089 103.039 7.95137 102.148 7.95137H97.3817V14.5638H102.148Z" fill="#636363"/>
<path d="M114.876 10.6701C115.183 10.6701 115.459 10.7315 115.705 10.8544C115.95 10.9773 116.073 11.1616 116.073 11.4074C116.073 11.6224 116.012 11.799 115.889 11.9373C115.766 12.0602 115.62 12.1216 115.452 12.1216C115.375 12.1216 115.221 12.0832 114.991 12.0064C114.776 11.9296 114.569 11.8912 114.369 11.8912C113.801 11.8912 113.233 12.1139 112.665 12.5594C112.113 12.9894 111.652 13.5501 111.284 14.2413C110.93 14.9325 110.754 15.6314 110.754 16.3379V22.0288C110.754 22.2285 110.685 22.3974 110.547 22.5357C110.424 22.6586 110.263 22.72 110.063 22.72C109.863 22.72 109.695 22.6586 109.556 22.5357C109.434 22.3974 109.372 22.2285 109.372 22.0288V11.7069C109.372 11.5072 109.434 11.3459 109.556 11.223C109.695 11.0848 109.863 11.0157 110.063 11.0157C110.263 11.0157 110.424 11.0848 110.547 11.223C110.685 11.3459 110.754 11.5072 110.754 11.7069V13.7344C111.107 12.8589 111.637 12.137 112.343 11.5686C113.064 10.985 113.909 10.6855 114.876 10.6701Z" fill="#636363"/>
<path d="M128.584 16.8218C128.584 17.9738 128.331 19.0182 127.824 19.9552C127.318 20.8922 126.619 21.6294 125.729 22.167C124.838 22.6893 123.848 22.9504 122.758 22.9504C121.668 22.9504 120.678 22.6893 119.788 22.167C118.897 21.6294 118.199 20.8922 117.692 19.9552C117.186 19.0182 116.932 17.9738 116.932 16.8218C116.932 15.6698 117.186 14.6253 117.692 13.6883C118.199 12.7514 118.897 12.0141 119.788 11.4765C120.678 10.9389 121.668 10.6701 122.758 10.6701C123.848 10.6701 124.838 10.9389 125.729 11.4765C126.619 12.0141 127.318 12.7514 127.824 13.6883C128.331 14.6253 128.584 15.6698 128.584 16.8218ZM127.203 16.8218C127.203 15.9002 127.011 15.0707 126.627 14.3334C126.243 13.5962 125.706 13.0202 125.015 12.6054C124.34 12.1754 123.587 11.9603 122.758 11.9603C121.929 11.9603 121.177 12.1754 120.502 12.6054C119.826 13.0202 119.289 13.5962 118.89 14.3334C118.506 15.0707 118.314 15.9002 118.314 16.8218C118.314 17.728 118.506 18.5498 118.89 19.287C119.289 20.0243 119.826 20.608 120.502 21.0381C121.177 21.4528 121.929 21.6602 122.758 21.6602C123.587 21.6602 124.34 21.4528 125.015 21.0381C125.706 20.6234 126.243 20.0474 126.627 19.3101C127.011 18.5728 127.203 17.7434 127.203 16.8218Z" fill="#636363"/>
<path d="M133.713 12.2829V20.0013C133.713 20.585 133.821 20.9843 134.036 21.1994C134.25 21.399 134.534 21.4989 134.888 21.4989C134.98 21.4989 135.095 21.4835 135.233 21.4528C135.371 21.4067 135.479 21.3837 135.555 21.3837C135.694 21.3837 135.809 21.4451 135.901 21.568C136.008 21.6755 136.062 21.8061 136.062 21.9597C136.062 22.1747 135.939 22.359 135.694 22.5126C135.448 22.6509 135.156 22.72 134.818 22.72C134.404 22.72 134.036 22.6816 133.713 22.6048C133.391 22.528 133.076 22.2976 132.769 21.9136C132.477 21.5296 132.331 20.9152 132.331 20.0704V12.2829H130.65C130.466 12.2829 130.305 12.2214 130.167 12.0986C130.044 11.9757 129.983 11.8221 129.983 11.6378C129.983 11.4534 130.044 11.2998 130.167 11.177C130.305 11.0541 130.466 10.9927 130.65 10.9927H132.331V8.43521C132.331 8.23553 132.393 8.07425 132.516 7.95137C132.654 7.81313 132.823 7.74401 133.022 7.74401C133.222 7.74401 133.383 7.81313 133.506 7.95137C133.644 8.07425 133.713 8.23553 133.713 8.43521V10.9927H136.016C136.185 10.9927 136.331 11.0618 136.453 11.2C136.592 11.3382 136.661 11.4918 136.661 11.6608C136.661 11.8451 136.599 11.9987 136.476 12.1216C136.354 12.2291 136.2 12.2829 136.016 12.2829H133.713Z" fill="#636363"/>
<path d="M149.97 16.8218C149.97 17.9738 149.717 19.0182 149.21 19.9552C148.704 20.8922 148.005 21.6294 147.115 22.167C146.224 22.6893 145.234 22.9504 144.144 22.9504C143.054 22.9504 142.064 22.6893 141.174 22.167C140.283 21.6294 139.585 20.8922 139.078 19.9552C138.572 19.0182 138.318 17.9738 138.318 16.8218C138.318 15.6698 138.572 14.6253 139.078 13.6883C139.585 12.7514 140.283 12.0141 141.174 11.4765C142.064 10.9389 143.054 10.6701 144.144 10.6701C145.234 10.6701 146.224 10.9389 147.115 11.4765C148.005 12.0141 148.704 12.7514 149.21 13.6883C149.717 14.6253 149.97 15.6698 149.97 16.8218ZM148.589 16.8218C148.589 15.9002 148.397 15.0707 148.013 14.3334C147.629 13.5962 147.092 13.0202 146.401 12.6054C145.726 12.1754 144.973 11.9603 144.144 11.9603C143.315 11.9603 142.563 12.1754 141.888 12.6054C141.212 13.0202 140.675 13.5962 140.276 14.3334C139.892 15.0707 139.7 15.9002 139.7 16.8218C139.7 17.728 139.892 18.5498 140.276 19.287C140.675 20.0243 141.212 20.608 141.888 21.0381C142.563 21.4528 143.315 21.6602 144.144 21.6602C144.973 21.6602 145.726 21.4528 146.401 21.0381C147.092 20.6234 147.629 20.0474 148.013 19.3101C148.397 18.5728 148.589 17.7434 148.589 16.8218Z" fill="#636363"/>
<path d="M157.886 10.6701C158.607 10.6701 159.275 10.7546 159.889 10.9235C160.518 11.0771 161.017 11.2922 161.386 11.5686C161.77 11.8451 161.961 12.1446 161.961 12.4672C161.961 12.6362 161.9 12.7898 161.777 12.928C161.67 13.0662 161.532 13.1354 161.363 13.1354C161.209 13.1354 161.079 13.1046 160.971 13.0432C160.879 12.9818 160.772 12.8896 160.649 12.7667C160.449 12.567 160.257 12.4211 160.073 12.329C159.843 12.2214 159.536 12.137 159.152 12.0755C158.784 11.9987 158.384 11.9603 157.955 11.9603C157.11 11.9603 156.335 12.1754 155.629 12.6054C154.938 13.0355 154.393 13.6192 153.994 14.3565C153.595 15.0938 153.395 15.9078 153.395 16.7987C153.395 17.7203 153.587 18.5498 153.971 19.287C154.355 20.0243 154.884 20.608 155.56 21.0381C156.251 21.4528 157.033 21.6602 157.909 21.6602C158.461 21.6602 158.899 21.6141 159.221 21.5219C159.559 21.4298 159.889 21.2992 160.211 21.1302C160.319 21.0688 160.503 20.9306 160.764 20.7155C160.887 20.608 160.994 20.5312 161.086 20.4851C161.178 20.4237 161.278 20.393 161.386 20.393C161.57 20.393 161.716 20.4544 161.823 20.5773C161.931 20.6848 161.984 20.8307 161.984 21.015C161.984 21.2762 161.8 21.5603 161.432 21.8675C161.063 22.1594 160.557 22.4128 159.912 22.6278C159.267 22.8429 158.553 22.9504 157.77 22.9504C156.65 22.9504 155.652 22.6893 154.777 22.167C153.902 21.6294 153.219 20.8922 152.727 19.9552C152.251 19.0182 152.013 17.9661 152.013 16.7987C152.013 15.6774 152.259 14.656 152.75 13.7344C153.242 12.7974 153.932 12.0525 154.823 11.4995C155.713 10.9466 156.734 10.6701 157.886 10.6701Z" fill="#636363"/>
<path d="M175.494 16.8218C175.494 17.9738 175.241 19.0182 174.734 19.9552C174.228 20.8922 173.529 21.6294 172.639 22.167C171.748 22.6893 170.758 22.9504 169.668 22.9504C168.578 22.9504 167.588 22.6893 166.698 22.167C165.807 21.6294 165.109 20.8922 164.602 19.9552C164.095 19.0182 163.842 17.9738 163.842 16.8218C163.842 15.6698 164.095 14.6253 164.602 13.6883C165.109 12.7514 165.807 12.0141 166.698 11.4765C167.588 10.9389 168.578 10.6701 169.668 10.6701C170.758 10.6701 171.748 10.9389 172.639 11.4765C173.529 12.0141 174.228 12.7514 174.734 13.6883C175.241 14.6253 175.494 15.6698 175.494 16.8218ZM174.112 16.8218C174.112 15.9002 173.921 15.0707 173.537 14.3334C173.153 13.5962 172.616 13.0202 171.925 12.6054C171.249 12.1754 170.497 11.9603 169.668 11.9603C168.839 11.9603 168.087 12.1754 167.411 12.6054C166.736 13.0202 166.199 13.5962 165.799 14.3334C165.416 15.0707 165.224 15.9002 165.224 16.8218C165.224 17.728 165.416 18.5498 165.799 19.287C166.199 20.0243 166.736 20.608 167.411 21.0381C168.087 21.4528 168.839 21.6602 169.668 21.6602C170.497 21.6602 171.249 21.4528 171.925 21.0381C172.616 20.6234 173.153 20.0474 173.537 19.3101C173.921 18.5728 174.112 17.7434 174.112 16.8218Z" fill="#636363"/>
<path d="M179.84 22.0288C179.84 22.2285 179.771 22.3974 179.633 22.5357C179.51 22.6586 179.349 22.72 179.149 22.72C178.95 22.72 178.781 22.6586 178.643 22.5357C178.52 22.3974 178.458 22.2285 178.458 22.0288V6.36161C178.458 6.16193 178.52 6.00065 178.643 5.87777C178.781 5.73953 178.95 5.67041 179.149 5.67041C179.349 5.67041 179.51 5.73953 179.633 5.87777C179.771 6.00065 179.84 6.16193 179.84 6.36161V22.0288Z" fill="#636363"/>
<path d="M44.1354 20.6477C44.4595 20.6477 44.7218 20.748 44.9225 20.9486C45.1385 21.1493 45.2465 21.4116 45.2465 21.7357C45.2465 22.0444 45.1385 22.299 44.9225 22.4996C44.7218 22.7002 44.4595 22.8005 44.1354 22.8005H36.3111C35.987 22.8005 35.7169 22.6925 35.5009 22.4765C35.3003 22.2604 35.2 21.9981 35.2 21.6894V7.70751C35.2 7.39886 35.308 7.1365 35.524 6.92045C35.7401 6.70439 36.0179 6.59636 36.3574 6.59636C36.666 6.59636 36.9284 6.70439 37.1445 6.92045C37.3759 7.1365 37.4917 7.39886 37.4917 7.70751V20.6477H44.1354Z" fill="#2A2A2A"/>
<path d="M49.7329 21.6894C49.7329 21.9981 49.6249 22.2604 49.4088 22.4765C49.2082 22.6925 48.9458 22.8005 48.6218 22.8005C48.3131 22.8005 48.0507 22.6925 47.8347 22.4765C47.6341 22.2604 47.5338 21.9981 47.5338 21.6894V11.666C47.5338 11.3573 47.6341 11.095 47.8347 10.8789C48.0507 10.6628 48.3131 10.5548 48.6218 10.5548C48.9458 10.5548 49.2082 10.6628 49.4088 10.8789C49.6249 11.095 49.7329 11.3573 49.7329 11.666V21.6894ZM48.6218 9.02699C48.1742 9.02699 47.8501 8.94983 47.6495 8.7955C47.4643 8.62574 47.3717 8.36339 47.3717 8.00844V7.63806C47.3717 7.26768 47.472 7.00533 47.6727 6.851C47.8887 6.69667 48.2128 6.61951 48.6449 6.61951C49.077 6.61951 49.3857 6.70439 49.5709 6.87415C49.7715 7.02847 49.8718 7.28311 49.8718 7.63806V8.00844C49.8718 8.37882 49.7715 8.64118 49.5709 8.7955C49.3702 8.94983 49.0539 9.02699 48.6218 9.02699Z" fill="#2A2A2A"/>
<path d="M63.0334 10.5085C63.3574 10.5085 63.6198 10.6165 63.8204 10.8326C64.0365 11.0332 64.1445 11.3033 64.1445 11.6428V21.8283C64.1445 23.0783 63.8744 24.12 63.3343 24.9534C62.8096 25.8022 62.092 26.4272 61.1814 26.8284C60.2709 27.2297 59.2447 27.4303 58.1026 27.4303C57.4853 27.4303 56.76 27.3223 55.9267 27.1062C55.1087 26.8902 54.584 26.6664 54.3525 26.4349C53.8741 26.188 53.6349 25.8793 53.6349 25.509C53.6349 25.4164 53.6658 25.2929 53.7275 25.1386C53.8973 24.7528 54.1828 24.5599 54.584 24.5599C54.7847 24.5599 55.0007 24.6062 55.2322 24.6988C56.4668 25.1772 57.4313 25.4164 58.1258 25.4164C59.3604 25.4164 60.3018 25.1154 60.95 24.5136C61.6136 23.9271 61.9454 23.1169 61.9454 22.0829V20.8329C61.6213 21.4348 61.0734 21.9518 60.3018 22.3839C59.5456 22.816 58.7431 23.032 57.8943 23.032C56.8295 23.032 55.8572 22.762 54.9776 22.2218C54.0979 21.6817 53.4034 20.9332 52.8942 19.9764C52.4003 19.0041 52.1534 17.9161 52.1534 16.7124C52.1534 15.5087 52.4003 14.4284 52.8942 13.4716C53.4034 12.4993 54.0902 11.7431 54.9544 11.203C55.8341 10.6628 56.7986 10.3928 57.848 10.3928C58.6968 10.3928 59.4839 10.5857 60.2092 10.9715C60.95 11.3573 61.5287 11.828 61.9454 12.3836V11.6428C61.9454 11.3187 62.0457 11.0487 62.2463 10.8326C62.4469 10.6165 62.7093 10.5085 63.0334 10.5085ZM58.1489 20.9949C58.9051 20.9949 59.5765 20.8175 60.1629 20.4625C60.7493 20.0921 61.2046 19.5829 61.5287 18.9347C61.8682 18.2711 62.038 17.5303 62.038 16.7124C62.038 15.8945 61.8682 15.1614 61.5287 14.5133C61.2046 13.8651 60.7493 13.3558 60.1629 12.9854C59.5765 12.6151 58.9051 12.4299 58.1489 12.4299C57.4082 12.4299 56.7446 12.6151 56.1581 12.9854C55.5717 13.3558 55.1087 13.8728 54.7692 14.5364C54.4451 15.1846 54.2831 15.9099 54.2831 16.7124C54.2831 17.5149 54.4451 18.2479 54.7692 18.9115C55.1087 19.5597 55.5717 20.069 56.1581 20.4394C56.7446 20.8097 57.4082 20.9949 58.1489 20.9949Z" fill="#2A2A2A"/>
<path d="M73.4492 10.4622C76.1654 10.4622 77.5234 12.1444 77.5234 15.5087V21.6894C77.5234 21.9981 77.4154 22.2604 77.1994 22.4765C76.9987 22.6925 76.7364 22.8005 76.4123 22.8005C76.1036 22.8005 75.8413 22.6925 75.6252 22.4765C75.4246 22.2604 75.3243 21.9981 75.3243 21.6894V15.5087C75.3243 13.5024 74.4755 12.4993 72.7779 12.4993C71.8674 12.4993 71.1112 12.7925 70.5093 13.379C69.9075 13.95 69.6065 14.6599 69.6065 15.5087V21.6894C69.6065 21.9981 69.4985 22.2604 69.2825 22.4765C69.0818 22.6925 68.8195 22.8005 68.4954 22.8005C68.1713 22.8005 67.909 22.7002 67.7083 22.4996C67.5077 22.2836 67.4074 22.0135 67.4074 21.6894V6.78155C67.4074 6.4729 67.5077 6.21055 67.7083 5.99449C67.9244 5.77844 68.1867 5.67041 68.4954 5.67041C68.8195 5.67041 69.0818 5.77844 69.2825 5.99449C69.4985 6.21055 69.6065 6.4729 69.6065 6.78155V12.6382C69.9924 12.0363 70.5325 11.5271 71.227 11.1104C71.9214 10.6783 72.6622 10.4622 73.4492 10.4622Z" fill="#2A2A2A"/>
<path d="M84.1001 12.8234V19.7218C84.1001 20.4934 84.4473 20.8792 85.1418 20.8792C85.2498 20.8792 85.3964 20.856 85.5816 20.8097C85.7668 20.748 85.9134 20.7172 86.0214 20.7172C86.222 20.7172 86.3918 20.802 86.5307 20.9718C86.6696 21.1415 86.739 21.3576 86.739 21.62C86.739 21.944 86.5538 22.2218 86.1835 22.4533C85.8131 22.6848 85.3964 22.8005 84.9334 22.8005C84.4241 22.8005 83.9535 22.7465 83.5213 22.6385C83.1047 22.5305 82.7266 22.2604 82.3871 21.8283C82.063 21.3808 81.9009 20.7094 81.9009 19.8143V12.8234H80.5583C80.2651 12.8234 80.0182 12.7308 79.8175 12.5456C79.6323 12.345 79.5397 12.0981 79.5397 11.8049C79.5397 11.5116 79.6323 11.2724 79.8175 11.0872C80.0182 10.902 80.2651 10.8095 80.5583 10.8095H81.9009V8.86495C81.9009 8.5563 82.0012 8.29394 82.2019 8.07789C82.4179 7.86183 82.688 7.7538 83.0121 7.7538C83.3207 7.7538 83.5754 7.86183 83.776 8.07789C83.992 8.29394 84.1001 8.5563 84.1001 8.86495V10.8095H86.0214C86.3146 10.8095 86.5538 10.9098 86.739 11.1104C86.9397 11.2956 87.04 11.5348 87.04 11.828C87.04 12.1212 86.9397 12.3604 86.739 12.5456C86.5538 12.7308 86.3146 12.8234 86.0214 12.8234H84.1001Z" fill="#2A2A2A"/>
</svg>
