<svg width="218" height="71" viewBox="0 0 218 71" fill="none" xmlns="http://www.w3.org/2000/svg">
<path d="M41.6098 29.8806C37.1403 25.1185 29.9957 23.8241 24.1442 26.6826H24.1318C26.5455 24.1876 28.185 21.3378 29.0109 18.1847C31.0074 10.5573 28.9506 5.68228 27.2298 2.67841C26.0526 0.623536 25.3243 0.0744216 25.2936 0.0514621C25.1884 -0.0260262 25.0467 -0.0135897 24.9539 0.0725084L24.9529 0.0715515L14.0701 10.277L4.72043 19.0457C1.80901 21.7759 0.135093 25.4753 0.00780288 29.4635C-0.119488 33.4518 1.3142 37.2506 4.04569 40.1608C6.97241 43.2785 10.9156 44.8732 14.9018 44.8732C17.1719 44.8732 19.4545 44.3537 21.5716 43.3062C19.1311 45.8126 17.4744 48.6816 16.6436 51.8557C14.3888 60.4703 17.4275 65.6592 18.4267 67.3639C19.4153 69.0524 20.1398 69.7842 20.3379 69.9689C20.3896 70.0167 20.4547 70.0397 20.5198 70.0397C20.5858 70.0397 20.6499 70.0148 20.7016 69.967L20.7026 69.9679L40.936 50.9957C46.9455 45.3601 47.2479 35.8884 41.6098 29.8806ZM20.5265 69.4035C20.5102 69.3863 20.4939 69.3691 20.4767 69.3499L20.5198 69.3251C20.5322 69.3471 20.5389 69.3681 20.5427 69.3872L20.5265 69.4035ZM31.6563 32.7649C31.3519 31.1931 30.1738 29.9916 28.1534 29.1957C27.738 29.0321 27.4002 28.9049 27.1063 28.8015C27.0154 28.7135 26.9044 28.636 26.7761 28.5662C27.6327 28.7451 28.6156 29.1335 29.8407 29.7697C31.7051 30.7378 32.777 32.0379 33.0277 33.6336C33.4422 36.272 31.6448 39.7044 27.8289 43.5616C27.1035 44.2954 26.3684 45.0693 25.6458 45.8624C23.5776 48.1315 21.963 50.5997 20.848 53.1998C18.6965 58.2634 18.0362 62.1971 18.1596 64.8699C17.5586 62.4219 17.3088 58.3954 19.2497 52.7005C20.1475 50.084 21.5965 47.6369 23.5575 45.4261C24.2236 44.6752 24.9462 43.9299 25.7042 43.2134C30.1144 39.0443 32.1721 35.4311 31.6563 32.7649ZM20.0384 68.2201C20.3073 66.7699 22.6177 62.5243 27.5983 55.5293C29.6799 52.6325 31.9501 50.1673 33.4881 48.6089C34.2442 47.8426 34.9735 47.0237 35.7181 46.1053C38.1069 43.1579 39.4114 40.0804 39.4899 37.2028C39.5712 34.2104 38.3156 31.5787 35.8578 29.5908C33.8078 27.9329 31.6122 26.9447 29.4416 26.6548C32.2286 26.7801 35.0357 27.9482 37.4207 30.0844C42.0568 34.2362 42.2032 40.6821 37.7959 46.5052C37.1049 47.4179 36.3651 48.2654 35.5965 49.0241C34.0011 50.5987 31.6084 53.0688 29.2722 55.8937C22.8455 63.7162 20.7035 66.877 20.0384 68.2201ZM33.556 33.5503C33.2775 31.7777 32.1109 30.3465 30.0876 29.2961C28.7554 28.6045 27.7179 28.1998 26.7895 28.0219C28.274 28.1032 29.9039 28.7059 31.7319 29.8471C33.6288 31.0315 34.7141 32.5564 34.9582 34.3816C35.3333 37.1884 33.7302 40.6171 30.3211 44.2973L29.8933 44.7603C29.3555 45.3419 28.7659 45.9791 28.1352 46.6535C26.0047 48.9284 24.2619 51.3573 22.9546 53.8723C20.4815 58.6795 18.9932 63.0466 18.7865 65.8496C18.4123 63.1968 19.0334 58.8412 21.3409 53.4084C22.432 50.8647 24.014 48.4463 26.0421 46.2211C26.7599 45.4328 27.4892 44.6637 28.2098 43.9357C32.1492 39.9541 33.9973 36.3629 33.556 33.5503ZM26.8987 29.4721C26.9762 29.8605 26.7034 30.6565 24.9635 32.2416C23.9289 33.183 22.9517 33.866 21.8874 34.3903C17.7155 36.4403 12.4325 35.2225 9.04065 31.4294C8.21087 30.5034 7.52752 29.4568 7.00878 28.3184C5.49183 24.9893 6.01917 20.9475 8.33146 17.868C6.74272 20.7227 6.55609 24.0413 7.89695 26.8232C8.39941 27.8669 9.03778 28.8321 9.79195 29.6903C12.0889 32.3105 15.253 33.7617 18.3271 33.7617C19.4411 33.7617 20.5437 33.5714 21.5888 33.1763C22.5669 32.8051 23.4848 32.2952 24.5615 31.5251C26.0038 30.4929 26.6843 29.8835 26.8795 29.409C26.8872 29.4291 26.8939 29.4501 26.8987 29.4721ZM27.4126 29.8787C27.6021 30.6938 27.0001 31.9336 25.6822 33.3906C24.6706 34.5089 23.591 35.3957 22.3822 36.1017C17.7816 38.7851 11.687 37.7003 7.88929 33.5207C6.95232 32.4913 6.19623 31.3213 5.64017 30.0433C4.02846 26.3382 4.63142 21.9873 7.14373 18.6965C5.37889 21.7463 5.10995 25.4341 6.52355 28.5385C7.06429 29.7266 7.77731 30.8181 8.64346 31.7844C11.0371 34.4611 14.3352 35.9094 17.5739 35.9094C19.1406 35.9094 20.693 35.5708 22.1229 34.8676C23.2331 34.3204 24.2504 33.6106 25.3224 32.6348C26.5886 31.483 27.2671 30.5905 27.4126 29.8787ZM26.0076 28.4581L26.0009 28.4763L25.9894 28.4571C25.9961 28.4571 26.0019 28.4581 26.0076 28.4581ZM26.3742 29.0464C26.3952 29.0684 26.4077 29.0885 26.4096 29.1038C26.4469 29.3707 25.7205 30.0385 24.2514 31.0898C23.213 31.8322 22.3334 32.322 21.4003 32.676C17.6811 34.0822 13.1771 32.74 10.193 29.3373C9.47037 28.5145 8.85976 27.5904 8.3774 26.5907C6.92743 23.583 7.37534 19.9038 9.5412 16.9717C8.11899 19.6723 8.00318 22.6522 9.2713 25.107C9.73548 26.0053 10.2963 26.8423 10.9404 27.5933C13.1666 30.1992 16.2455 31.6944 19.1789 31.6944C19.8106 31.6944 20.4365 31.6246 21.0452 31.4821C21.919 31.2754 22.767 30.9454 23.7939 30.4125C24.3796 30.1083 24.8553 29.8739 25.2372 29.6864C25.8746 29.3736 26.2143 29.2052 26.3742 29.0464ZM25.7425 28.8341C25.5578 28.9345 25.2917 29.0656 25.0017 29.2081C24.617 29.3975 24.1385 29.6329 23.547 29.9399C22.5612 30.4527 21.7515 30.7684 20.9227 30.9645C17.6821 31.725 13.9236 30.2662 11.3462 27.2479C10.7289 26.5276 10.191 25.7259 9.74601 24.864C8.43099 22.3174 8.70854 19.1538 10.4887 16.4024L10.5155 16.3489C10.5844 16.1614 10.7337 15.9031 10.9328 15.6046C10.927 15.6199 10.9194 15.6371 10.9136 15.6524C9.501 18.3693 9.40338 21.1905 10.6476 23.3965C11.0706 24.1475 11.5558 24.8554 12.088 25.4992C14.3256 28.2113 17.3069 29.7974 20.1302 29.7974C20.2489 29.7974 20.3676 29.7945 20.4863 29.7888C21.2912 29.7496 22.119 29.5898 23.0158 29.3009C24.7031 28.7556 25.5358 28.8082 25.7425 28.8341ZM5.15111 30.2556C5.73014 31.5873 6.5178 32.8061 7.49402 33.8794C9.99676 36.6346 13.4585 38.1001 16.8829 38.1001C18.8841 38.1001 20.8739 37.5989 22.6502 36.5628C23.9068 35.8281 25.0276 34.9078 26.0765 33.7493C27.2384 32.4645 27.8758 31.3252 27.9687 30.4077C28.1763 31.4591 27.6308 32.9429 26.4038 34.5385C25.4209 35.8166 24.2351 36.9187 22.8799 37.8131C17.7883 41.171 10.9998 40.2449 6.73698 35.6129C5.69281 34.4792 4.86303 33.1858 4.26965 31.7681C2.56606 27.6966 3.23696 23.0349 5.93878 19.524C3.98252 22.7909 3.64372 26.7916 5.15111 30.2556ZM23.4274 54.1172C24.7127 51.6462 26.4268 49.2575 28.5238 47.018C29.1554 46.3426 29.7459 45.7045 30.2848 45.1229L30.7126 44.6608C34.2327 40.8601 35.8836 37.2812 35.4865 34.3118C35.2204 32.322 34.0528 30.668 32.0142 29.3956C30.4188 28.3997 28.9583 27.7971 27.6011 27.5761C29.5316 27.6612 31.573 28.4504 33.6259 29.9265C35.5678 31.3233 36.6761 33.0825 36.9192 35.1565C37.2666 38.1183 35.8463 41.5345 32.8124 45.0339C32.0362 45.9293 31.3203 46.7176 30.6217 47.4446C29.1143 49.0126 26.9254 51.5161 25.0592 54.5458C22.5287 58.6958 19.8881 63.7679 19.2976 66.6933C19.2258 64.4002 20.3839 60.0341 23.4274 54.1172ZM19.7091 67.5189C19.8402 65.6314 21.563 61.3017 25.5138 54.8233C27.3552 51.8347 29.5172 49.3618 31.0064 47.813C31.7118 47.0792 32.4334 46.2842 33.2153 45.3821C36.3497 41.766 37.8131 38.2082 37.4485 35.0934C37.1872 32.8644 36.0061 30.9798 33.937 29.4922C32.0429 28.13 30.1508 27.3312 28.3314 27.1025C30.7384 27.1618 33.223 28.1443 35.5228 30.004C37.8466 31.8839 39.0343 34.3673 38.9568 37.1875C38.8812 39.9465 37.6188 42.914 35.3037 45.7686C34.5696 46.6736 33.8518 47.48 33.1091 48.2339C31.5577 49.8056 29.2674 52.292 27.1657 55.2183C25.0515 58.1868 20.7026 64.5007 19.7091 67.5189ZM22.2291 28.1788C23.4063 28.0362 24.1988 28.1768 24.6945 28.3481C24.2284 28.4141 23.6207 28.5442 22.8512 28.791C21.9994 29.0656 21.2165 29.2167 20.4585 29.254C17.6974 29.3851 14.7237 27.8545 12.4976 25.1577C11.9846 24.5378 11.5185 23.8566 11.1108 23.1325C9.95465 21.0833 10.058 18.4401 11.3931 15.882L11.4075 15.8505C11.5156 15.5539 11.7004 15.2009 11.9262 14.8221C11.0122 17.1228 10.704 19.6024 12.0238 21.685C13.4795 23.982 15.2138 25.7891 17.0408 26.9093C18.7559 27.9616 20.4997 28.3892 22.2291 28.1788ZM25.6171 1.82126C25.3482 3.27153 23.0378 7.51713 18.0572 14.5121C16.0646 17.2854 13.9016 19.6598 12.3713 21.2239C12.0238 20.6241 11.8181 19.988 11.7262 19.3307C13.4173 17.582 14.9841 15.838 16.3833 14.1467C22.811 6.32514 24.9529 3.16343 25.6171 1.82126ZM17.2274 26.3956C16.7269 26.0808 16.233 25.7135 15.7507 25.2945L15.7689 25.2744C16.3058 24.6937 16.8934 24.0594 17.5222 23.3869C19.6527 21.112 21.3955 18.6841 22.7028 16.1681C25.1759 11.36 26.6642 6.99288 26.8709 4.18991C27.2451 6.84269 26.624 11.1983 24.3165 16.6311C23.2254 19.1748 21.6434 21.5932 19.6153 23.8184L19.5187 23.9246C18.7693 24.7482 17.8467 25.7613 17.2274 26.3956ZM22.2291 15.9241C20.9438 18.3951 19.2296 20.7839 17.1327 23.0234C16.5039 23.6959 15.9153 24.3321 15.3774 24.9128L15.3545 24.9376C14.9219 24.533 14.5007 24.0872 14.0911 23.606C14.4089 23.2587 14.7257 22.9182 15.0348 22.5967C16.5422 21.0288 18.731 18.5243 20.5973 15.4956C23.1278 11.3456 25.7684 6.27349 26.3589 3.34806C26.4306 5.64114 25.2726 10.0063 22.2291 15.9241ZM25.9473 2.52248C25.8162 4.4109 24.0935 8.73972 20.1427 15.2181C18.3013 18.2057 16.1402 20.6796 14.65 22.2284C14.3553 22.5355 14.0528 22.8608 13.7494 23.1908C13.3743 22.7201 13.0106 22.2189 12.6632 21.6889C14.2107 20.1123 16.4398 17.6777 18.4917 14.8221C20.604 11.8536 24.9539 5.54069 25.9473 2.52248ZM15.9727 13.8071C14.674 15.3769 13.2278 16.9937 11.6716 18.618C11.6525 17.6403 11.8544 16.632 12.1904 15.6419C12.9082 14.9063 13.6097 14.1754 14.2768 13.4684C22.0224 5.22405 24.5471 2.31967 25.3214 1.21283C24.9912 2.2087 22.4253 5.95396 15.9727 13.8071ZM19.3684 27.3914C18.8114 27.2231 18.2544 26.9839 17.6993 26.6749C18.3223 26.0311 19.1961 25.0716 19.913 24.2843L20.0096 24.1781C22.0779 21.9089 23.6925 19.4408 24.8075 16.8406C26.959 11.7771 27.6193 7.84334 27.4959 5.17047C28.0969 7.61853 28.3467 11.6451 26.4058 17.34C25.508 19.9564 24.059 22.4044 22.098 24.6143C21.4328 25.3653 20.7102 26.1095 19.9513 26.827C19.7512 27.0164 19.5589 27.2039 19.3684 27.3914ZM25.1367 0.715374C25.1242 0.693371 25.1175 0.672325 25.1137 0.653192L25.1386 0.630232C25.1549 0.647452 25.1731 0.664672 25.1912 0.684762L25.1367 0.715374ZM25.0276 0.73355C24.5653 1.47495 22.1296 4.33149 13.8882 13.1049C13.5063 13.5096 13.112 13.9238 12.7101 14.3409C13.1809 13.3077 13.76 12.3233 14.3438 11.4499C14.3553 11.4336 15.5143 9.82838 15.9392 9.25631L25.0276 0.73355ZM4.71085 20.3706C2.58137 23.8595 2.18514 28.1635 3.77867 31.9738C4.39598 33.4489 5.25925 34.7949 6.34553 35.9735C8.99566 38.853 12.5837 40.3569 16.1756 40.3569C18.6028 40.3569 21.0328 39.67 23.1737 38.258C24.5787 37.331 25.8076 36.1888 26.8269 34.8638C27.9323 33.426 28.5132 32.079 28.5477 30.9731C28.7898 32.2416 28.296 33.9406 27.1303 35.6846C26.1627 37.1311 24.9012 38.4225 23.3814 39.5227C17.8926 43.4937 10.2427 42.7121 5.58562 37.705C4.43426 36.4681 3.53078 35.0503 2.90007 33.4929C1.11131 29.0694 1.83964 24.1063 4.71085 20.3706ZM20.3351 68.8276C20.6652 67.8336 23.2312 64.0884 29.6837 56.2343C32.0046 53.4275 34.3839 50.9718 35.9707 49.4048C36.7575 48.6271 37.5145 47.7603 38.2208 46.8276C40.4135 43.9309 41.5524 40.795 41.5151 37.7605C41.4768 34.6352 40.1838 31.8437 37.7758 29.6874C35.585 27.7253 33.0488 26.5477 30.4838 26.209C33.6824 26.3841 36.8484 27.7406 39.3186 30.1648C43.9183 34.6773 44.3068 41.5402 40.2862 47.2428C39.6277 48.1765 38.886 49.0422 38.082 49.8162C36.4407 51.3956 33.9446 53.8494 31.3778 56.571C23.6341 64.8164 21.1084 67.7198 20.3351 68.8276ZM28.4951 18.0498C27.5533 21.6468 25.5214 24.8429 22.455 27.5522L22.366 27.6306C22.299 27.6373 22.2348 27.6411 22.165 27.6497C21.4376 27.7377 20.7064 27.7023 19.9742 27.5474C20.0891 27.4364 20.2001 27.3264 20.3178 27.2154C21.0873 26.4874 21.8214 25.7317 22.4971 24.9692C24.505 22.7058 25.9894 20.1975 26.9101 17.5131C28.6606 12.3769 28.6597 8.54839 28.206 5.97884C29.2712 8.85547 29.8761 12.7748 28.4951 18.0498ZM4.43522 39.7963C1.80136 36.9904 0.418387 33.3265 0.541849 29.4808C0.638513 26.4405 1.6712 23.5754 3.4858 21.2067C1.18213 24.9233 0.725606 29.5362 2.40718 33.691C3.06182 35.3086 4.00071 36.7809 5.19609 38.0667C7.96394 41.0428 11.7501 42.582 15.5526 42.582C18.3979 42.582 21.2519 41.7201 23.6944 39.9522C25.2659 38.8147 26.5704 37.4774 27.5734 35.9783C28.631 34.3979 29.165 32.8692 29.1487 31.5854C29.3459 32.6501 29.1688 33.9473 28.607 35.3268C27.6739 37.1684 25.888 39.3179 23.4226 41.5718C17.4945 45.8346 9.4273 45.1162 4.43522 39.7963ZM17.1604 51.9916C18.1012 48.3956 20.1341 45.1984 23.2005 42.4892C23.3891 42.3228 23.5738 42.1563 23.7556 41.9908C23.9088 41.8798 24.0619 41.7679 24.2122 41.6502C26.468 39.8948 28.185 37.7462 29.0846 35.566C29.0856 35.5641 29.0875 35.5612 29.0884 35.5593C29.097 35.543 29.1028 35.5258 29.1076 35.5086C29.143 35.4215 29.1794 35.3354 29.2119 35.2484C29.9144 33.3762 29.9402 31.6456 29.3086 30.3762C30.3269 31.0363 30.9404 31.8695 31.1327 32.8673C31.6122 35.345 29.6081 38.7889 25.3386 42.826C24.5691 43.554 23.836 44.3097 23.1594 45.0722C21.1524 47.3356 19.667 49.8439 18.7463 52.5283C16.9681 57.7458 16.9968 61.6154 17.4725 64.185C16.4934 61.5714 15.7181 57.5038 17.1604 51.9916ZM40.5714 50.6073L20.6289 69.3078C21.0921 68.5664 23.5269 65.7099 31.7682 56.9365C34.3274 54.2225 36.8158 51.7754 38.4534 50.2007C39.2822 49.4029 40.046 48.5113 40.7236 47.5508C42.7009 44.746 43.7067 41.4685 43.5546 38.3221C43.3976 35.0609 42.0625 32.1087 39.6937 29.785C37.5576 27.689 34.9285 26.3238 32.0889 25.8369C31.8142 25.79 31.5395 25.7537 31.2658 25.724C34.9658 25.8742 38.5788 27.4316 41.2212 30.247C46.6584 36.0386 46.3665 45.1726 40.5714 50.6073Z" fill="url(#paint0_linear)"/>
<path d="M76.2147 48.2077H66.7393L65.9512 38.9713H66.8163L67.4016 40.1152C68.7083 42.9316 69.9816 44.7809 71.2215 45.6633C72.1714 46.2224 73.514 46.5713 75.2443 46.7072C77.9783 46.5713 79.344 45.5196 79.344 43.5523C79.344 42.1954 78.7074 41.0668 77.434 40.1691C76.4483 39.492 75.234 38.7969 73.7913 38.0838C72.2125 37.304 70.5489 36.3371 68.8007 35.1828C68.3592 34.9622 67.7739 34.4159 67.0422 33.5412C66.3157 32.664 65.9512 31.4303 65.9512 29.8349C65.9512 27.5623 66.8291 25.7386 68.5876 24.3638C70.3461 22.989 72.6489 22.2708 75.501 22.2015H84.4912L85.2793 31.438H84.4141L83.8545 30.394C82.4785 27.647 81.1898 25.7617 79.9832 24.746C78.9974 24.0175 77.7755 23.6507 76.3173 23.6507C75.0081 23.702 73.9915 24.1253 73.2624 24.923C72.7516 25.4821 72.4974 26.1695 72.4974 26.9826C72.4974 27.3212 72.5488 27.6957 72.6514 28.1035C72.9903 29.2398 73.6321 30.1273 74.5742 30.7634C75.5164 31.3995 76.6485 31.9971 77.9732 32.5563C79.552 33.2027 81.2488 34.1081 83.0664 35.2777C84.9686 36.314 85.9185 38.1017 85.9185 40.6488C85.9185 42.9547 85.0277 44.7835 83.2435 46.1327C81.4593 47.4818 79.1181 48.1718 76.2147 48.2077Z" fill="white"/>
<path d="M97.3654 48.2336H95.6608C94.5569 48.2336 93.4453 47.6411 92.3235 46.4509C91.3711 45.5506 90.7344 44.322 90.4135 42.7625C90.3288 42.3727 90.2852 41.9828 90.2852 41.5929C90.2852 40.4387 90.7087 39.1716 91.5585 37.7891C92.4082 36.4066 94.3002 35.2164 97.237 34.2135C97.6272 34.0955 98.1021 33.9673 98.6643 33.8313C101.619 33.2055 103.681 32.2616 104.851 31.0073C104.715 29.3452 104.402 27.8267 103.909 26.4519C103.313 24.8591 102.33 23.9408 100.954 23.7048C100.631 23.6715 100.266 23.6536 99.8581 23.6536C98.7362 23.6536 97.6683 24.0178 96.6491 24.7488C95.4426 25.7671 94.1539 27.6498 92.7779 30.3968L92.2182 31.4408H91.3788L92.1438 22.2043H100.369C100.623 22.2043 101.057 22.2223 101.668 22.2556C104.487 22.5096 106.877 23.828 108.838 26.2108C110.799 28.5962 111.78 31.6101 111.78 35.2574L111.806 46.7844H115.474V48.2105H107.249C106.62 48.2105 106.086 47.9899 105.644 47.5488C105.203 47.1076 104.982 46.5741 104.982 45.9457V44.4964C102.109 46.9845 99.5705 48.2336 97.3654 48.2336ZM100.369 44.6196C100.962 44.6196 101.599 44.5093 102.279 44.2887C103.313 43.8475 104.23 43.1344 105.028 42.1521V35.2549C105.028 34.5931 105.01 33.8467 104.977 33.0157L103.27 33.9827C101.878 34.7111 100.554 35.5088 99.2959 36.3732C98.0405 37.2402 97.1908 38.2148 96.7492 39.2998C96.6132 39.7743 96.5439 40.2335 96.5439 40.6721C96.5439 41.7237 96.9341 42.6651 97.7145 43.4961C98.4333 44.2476 99.3164 44.6196 100.369 44.6196Z" fill="white"/>
<path d="M129.427 48.1307H129.376C126.998 48.1153 124.822 47.6177 122.842 46.6431C120.866 45.6684 119.269 44.214 118.054 42.28C116.84 40.3461 116.234 37.9376 116.234 35.0545C116.234 31.9663 116.866 29.4527 118.132 27.511C119.397 25.5693 121.022 24.156 123.009 23.2737C124.842 22.4426 126.785 22.0271 128.842 22.0271H137.501L138.289 31.2635H137.449C137.298 31.025 137.11 30.6787 136.89 30.2196C136.433 29.3398 135.868 28.342 135.198 27.2288C134.528 26.1182 133.801 25.2307 133.021 24.5715C131.986 23.8405 130.729 23.4763 129.252 23.4763H128.896C126.621 23.4763 124.991 24.8075 124.005 27.47C123.325 29.268 122.986 31.2789 122.986 33.5002C122.986 34.0773 123.012 34.6621 123.063 35.2572C123.589 40.1768 125.702 43.1803 129.404 44.2653C129.948 44.3859 130.567 44.4449 131.262 44.4449C131.958 44.4449 132.944 44.3474 134.217 44.1525C135.491 43.9575 136.823 43.1137 138.217 41.6209L138.114 42.1031C137.264 44.0524 136.158 45.5452 134.79 46.5815C133.421 47.6126 131.635 48.1307 129.427 48.1307Z" fill="white"/>
<path d="M155.162 48.2334H141.002V46.7816H144.67V23.6507H141.002V22.2015H149.201C149.83 22.2015 150.369 22.4221 150.819 22.8633C151.268 23.3045 151.494 23.8482 151.494 24.4921V29.3783C152.19 28.0907 153.353 26.5286 154.983 24.6947L157.378 22.2015H164.076L161.349 29.1218L160.127 29.0705C159.075 29.0705 157.776 29.1808 156.23 29.4014C154.685 29.622 153.106 30.3273 151.494 31.5124V46.779H155.162V48.2334Z" fill="white"/>
<path d="M177.458 48.2335H177.406C175.047 48.2155 172.88 47.7205 170.911 46.7458C168.942 45.7711 167.351 44.3194 166.137 42.3956C164.922 40.4693 164.316 38.0737 164.316 35.206C164.316 32.1204 164.922 29.6221 166.137 27.7112C167.351 25.8029 168.942 24.4024 170.911 23.5124C172.88 22.6223 175.055 22.176 177.432 22.176H177.609C181.922 22.3299 184.774 24.8308 186.165 29.6811C186.758 31.8177 187.056 33.9826 187.056 36.1705L180.918 36.1961C177.455 36.2295 174.195 36.2449 171.14 36.2449C171.43 38.1634 172.133 39.8845 173.255 41.4107C174.783 43.496 176.795 44.5399 179.291 44.5399C179.986 44.5399 180.972 44.4425 182.245 44.2475C183.519 44.0526 184.851 43.2087 186.245 41.7159L186.117 42.1981C185.285 44.1475 184.186 45.6403 182.818 46.6766C181.452 47.7154 179.665 48.2335 177.458 48.2335ZM174.988 34.7213L180.718 34.67V33.9338C180.718 32.9335 180.679 31.7074 180.602 30.2557C180.525 28.8039 180.292 27.4265 179.902 26.1209C179.393 24.5255 178.441 23.7278 177.049 23.7278C175.265 23.7278 173.756 24.8385 172.516 27.0623C171.463 28.945 170.937 31.1842 170.937 33.7799L170.963 34.67C172.151 34.7033 173.494 34.7213 174.988 34.7213Z" fill="white"/>
<path d="M217.389 48.1567H202.109C198.579 48.072 195.756 46.828 193.643 44.4298C191.53 42.029 190.421 38.9715 190.318 35.2575V35.0548C190.421 31.3049 191.548 28.2269 193.704 25.8184C195.861 23.4099 198.728 22.189 202.312 22.1556C204.248 22.1736 205.768 22.4455 206.871 22.9687L206.846 11.6213H203.18V10.167H211.405C212.031 10.167 212.573 10.3876 213.022 10.8288C213.472 11.2699 213.697 11.8137 213.697 12.4575V46.7075H217.389V48.1567ZM202.643 45.484C204.902 45.484 206.312 44.5503 206.871 42.6856V27.6216C206.312 25.7543 205.046 24.8232 203.077 24.8232C202.551 24.8232 201.999 24.9258 201.421 25.1284C199.809 25.8902 198.633 27.3574 197.894 29.5299C197.155 31.6999 196.785 33.5748 196.785 35.1523C196.785 38.597 197.17 41.18 197.943 42.9011C198.718 44.6247 200.284 45.484 202.643 45.484Z" fill="white"/>
<defs>
<linearGradient id="paint0_linear" x1="9.85404" y1="70.8526" x2="35.0447" y2="1.19334" gradientUnits="userSpaceOnUse">
<stop offset="0.0223" stop-color="#EF646D"/>
<stop offset="0.5" stop-color="#92278F"/>
<stop offset="1" stop-color="#2484C6"/>
</linearGradient>
</defs>
</svg>
